<svg width="18" height="18" viewBox="0 0 18 18" fill="none" xmlns="http://www.w3.org/2000/svg">
<path fill-rule="evenodd" clip-rule="evenodd" d="M9.00156 15.4918C12.5224 15.4918 15.3766 12.6376 15.3766 9.1168C15.3766 5.59598 12.5224 2.7418 9.00156 2.7418C5.48075 2.7418 2.62656 5.59598 2.62656 9.1168C2.62656 12.6376 5.48075 15.4918 9.00156 15.4918ZM9.00156 16.7668C13.2265 16.7668 16.6516 13.3418 16.6516 9.1168C16.6516 4.89182 13.2265 1.4668 9.00156 1.4668C4.77658 1.4668 1.35156 4.89182 1.35156 9.1168C1.35156 13.3418 4.77658 16.7668 9.00156 16.7668Z" fill="#556E6E"/>
<path d="M8.19062 11.1022H9.45234V10.5697C9.45234 9.01141 11.8031 8.79065 11.8031 6.64794C11.8031 5.20648 10.5281 4.27148 9.02734 4.27148C7.57969 4.27148 6.70312 5.1026 6.70312 5.1026L7.42031 5.99864C7.42031 5.99864 8.09766 5.45322 8.93437 5.45322C9.81094 5.45322 10.4484 6.01162 10.4484 6.73884C10.4484 8.23225 8.19062 8.51794 8.19062 10.4918V11.1022ZM8.16406 13.6215H9.47891V12.3618H8.16406V13.6215Z" fill="#556E6E"/>
</svg>
